<?xml version="1.0" standalone="no"?>
<!DOCTYPE svg PUBLIC "-//W3C//DTD SVG 20010904//EN"
 "http://www.w3.org/TR/2001/REC-SVG-20010904/DTD/svg10.dtd">
<svg version="1.0" xmlns="http://www.w3.org/2000/svg"
 width="512.000000pt" height="512.000000pt" viewBox="0 0 512.000000 512.000000"
 preserveAspectRatio="xMidYMid meet">
<metadata>
Created by potrace 1.14, written by Peter Selinger 2001-2017
</metadata>
<g transform="translate(0.000000,512.000000) scale(0.100000,-0.100000)"
fill="#000000" stroke="none">
<path d="M2585 5111 c-3 -5 4 -33 15 -61 20 -52 26 -90 13 -90 -5 0 -37 9 -71
20 -164 52 -373 7 -550 -116 -48 -33 -97 -56 -176 -81 -515 -163 -968 -501
-1278 -953 -218 -319 -354 -676 -409 -1080 -17 -123 -17 -477 0 -600 101 -734
478 -1340 1086 -1745 61 -40 151 -94 200 -118 l90 -46 5 156 5 155 33 29 c29
26 39 29 102 29 58 0 75 4 107 26 44 30 92 28 128 -6 21 -20 31 -20 675 -20
644 0 654 0 675 20 35 33 84 36 126 7 29 -20 52 -25 114 -29 72 -3 79 -6 106
-36 l29 -32 0 -150 c0 -83 2 -150 5 -150 8 0 174 89 230 123 87 53 266 191
366 280 138 123 298 311 401 472 202 312 327 653 379 1035 17 123 17 477 0
600 -65 471 -244 891 -534 1249 -79 99 -251 270 -351 351 -192 155 -464 312
-681 391 -83 30 -96 39 -165 110 -92 95 -157 130 -253 137 -49 3 -85 0 -128
-13 l-61 -19 -23 31 c-44 56 -196 146 -210 124z m363 -781 c14 -145 58 -229
182 -350 53 -53 104 -109 113 -126 24 -46 37 -170 37 -345 0 -87 4 -159 9
-159 15 0 39 73 80 241 22 89 42 163 45 166 9 10 46 -19 61 -47 23 -44 18 -89
-19 -197 -19 -54 -39 -118 -46 -142 -16 -61 -60 -101 -111 -101 -37 0 -39 -2
-49 -42 -33 -128 -88 -263 -154 -377 -25 -44 -46 -87 -46 -96 0 -24 56 -155
83 -195 17 -24 39 -39 73 -50 147 -49 170 -324 49 -587 -107 -231 -319 -440
-579 -569 l-115 -57 -88 42 c-418 200 -698 583 -680 929 4 79 9 101 38 160 32
62 37 68 82 82 55 18 84 56 130 172 33 82 33 84 1 132 -46 67 -120 233 -155
346 -32 105 -35 110 -61 110 -67 0 -101 36 -129 139 -10 36 -29 97 -43 134
-31 82 -33 131 -5 176 l21 34 25 -44 c51 -87 92 -187 114 -272 12 -48 25 -87
30 -87 14 0 18 35 28 251 9 191 11 211 35 261 40 84 192 219 211 188 4 -6 4
-23 0 -39 -3 -16 -2 -32 4 -35 16 -11 209 33 330 75 204 70 353 160 428 258
41 54 66 61 71 21z"/>
</g>
</svg>
